# xmcd
#
# Track frame offsets:
#	150
#	13925
#	24155
#	37135
#	48632
#	60395
#	80182
#	88762
#	102847
#	117622
#	128197
#	140572
#	153332
#	161997
#	176560
#	186575
#	203497
#	218672
#
# Disc length: 3072
#
# Revision: 1
# Processed by: cddbd v1.5.1PL0 Copyright (c) Steve Scherf et al.
# Submitted via: CD-DA_X-Tractor v0.21
# Normalized: r0:TDELIM( - )
#
DISCID=070bfe12
DTITLE=Variouse - Country Tracks Disc 1
DYEAR=1900
DGENRE=
TTITLE0=Freddy Fender - Wasted Days and Wasted Nights
TTITLE1=Wanda Jackson - Let's Have A Party
TTITLE2=Faron Young - It's Four In The Morning
TTITLE3=Sammi Smith - Help Me Make It Through The Night
TTITLE4=Charley Pride - There Goes My Everything
TTITLE5=Marty Robbins - El Paso
TTITLE6=Roger Miller - Enland Swings
TTITLE7=Johnny Cash - Orange Blossom Special
TTITLE8=George Jones - He Stopped Loving Her Today
TTITLE9=The Startler Brothers - Flowers On The Wall
TTITLE10=Marle Haggard - If We Make It Through December
TTITLE11=Johnny Horton - North To Alaska
TTITLE12=Ferlin Husky - Wings Of A Dove
TTITLE13=Glen Campbell - Rhinestone Cowboy
TTITLE14=Waylon Jennings - White lightning
TTITLE15=George Jones - Bartender's Blues
TTITLE16=Kenny Rogers and The First Edition - For The Good Times
TTITLE17=Bob Wills - New San Antonio Rose
EXTD=
EXTT0=
EXTT1=
EXTT2=
EXTT3=
EXTT4=
EXTT5=
EXTT6=
EXTT7=
EXTT8=
EXTT9=
EXTT10=
EXTT11=
EXTT12=
EXTT13=
EXTT14=
EXTT15=
EXTT16=
EXTT17=
PLAYORDER=
